HIERARCHY
ROOT Hips
{
	OFFSET 0.00000 0.00000 0.00000
	CHANNELS 6 Xposition Yposition Zposition Zrotation Yrotation Xrotation 
	JOINT LHipJoint
	{
		OFFSET 0 0 0
		CHANNELS 3 Zrotation Yrotation Xrotation
		JOINT LeftHip
		{
			OFFSET 1.74857 -1.85566 0.69197
			CHANNELS 3 Zrotation Yrotation Xrotation
			JOINT LeftKnee
			{
				OFFSET 2.40003 -6.59403 0.00000
				CHANNELS 3 Zrotation Yrotation Xrotation
				JOINT LeftAnkle
				{
					OFFSET 2.82169 -7.75254 0.00000
					CHANNELS 3 Zrotation Yrotation Xrotation
					JOINT LeftToe
					{
						OFFSET 0.16466 -0.45240 2.26890
						CHANNELS 3 Zrotation Yrotation Xrotation
						End Site
						{
							OFFSET 0.00000 -0.00000 1.16486
						}
					}
				}
			}
		}
	}
	JOINT RHipJoint
	{
		OFFSET 0 0 0
		CHANNELS 3 Zrotation Yrotation Xrotation
		JOINT RightHip
		{
			OFFSET -1.64169 -1.85566 0.69197
			CHANNELS 3 Zrotation Yrotation Xrotation
			JOINT RightKnee
			{
				OFFSET -2.41814 -6.64379 0.00000
				CHANNELS 3 Zrotation Yrotation Xrotation
				JOINT RightAnkle
				{
					OFFSET -2.80588 -7.70911 0.00000
					CHANNELS 3 Zrotation Yrotation Xrotation
					JOINT RightToe
					{
						OFFSET -0.19098 -0.52472 2.25401
						CHANNELS 3 Zrotation Yrotation Xrotation
						End Site
						{
							OFFSET -0.00000 -0.00000 1.16333
						}
					}
				}
			}
		}
	}
	JOINT lowerback
	{
		OFFSET 0 0 0
		CHANNELS 3 Zrotation Yrotation Xrotation
		JOINT Chest
		{
			OFFSET -0.02828 2.14690 -0.11061
			CHANNELS 3 Zrotation Yrotation Xrotation
			JOINT Chest2
			{
				OFFSET -0.00167 2.15299 0.00759
				CHANNELS 3 Zrotation Yrotation Xrotation
				JOINT lowerneck
				{
					OFFSET 0 0 0
					CHANNELS 3 Zrotation Yrotation Xrotation
					JOINT Neck
					{
						OFFSET -0.09296 1.90118 0.07197
						CHANNELS 3 Zrotation Yrotation Xrotation
						JOINT Head
						{
							OFFSET 0.08490 1.89526 -0.24604
							CHANNELS 3 Zrotation Yrotation Xrotation
							End Site
							{
								OFFSET 0.03186 1.92109 -0.09483
							}
						}
					}
				}
				JOINT LeftCollar
				{
					OFFSET 0 0 0
					CHANNELS 3 Zrotation Yrotation Xrotation
					JOINT LeftShoulder
					{
						OFFSET 3.21569 1.44644 -0.03720
CHANNELS 3 Zrotation Xrotation Yrotation
						JOINT LeftElbow
						{
OFFSET 0 -5.476510 -0.000000
CHANNELS 3 Zrotation Xrotation Yrotation
							JOINT LeftWrist
							{
OFFSET 0 -3.090580 -0.000000
CHANNELS 3 Zrotation Xrotation Yrotation
								JOINT lhand
								{
									OFFSET 0 0 0
CHANNELS 3 Zrotation Xrotation Yrotation
									JOINT LFingers
									{
OFFSET 0 -0.771610 -0.000000
CHANNELS 3 Zrotation Xrotation Yrotation
										End Site
										{
OFFSET 0 -0.622090 -0.000000
										}
									}
								}
								JOINT LThumb
								{
OFFSET 0 0.000000 0.000000
CHANNELS 3 Zrotation Xrotation Yrotation
									End Site
									{
OFFSET 0 -0.631590 0.631590
									}
								}
							}
						}
					}
				}
				JOINT RightCollar
				{
					OFFSET 0 0 0
					CHANNELS 3 Zrotation Yrotation Xrotation
					JOINT RightShoulder
					{
						OFFSET -3.38693 1.28904 -0.07093
CHANNELS 3 Zrotation Xrotation Yrotation
						JOINT RightElbow
						{
OFFSET 0 -5.141820 -0.000000
CHANNELS 3 Zrotation Xrotation Yrotation
							JOINT RightWrist
							{
OFFSET 0 -3.355650 -0.000000
CHANNELS 3 Zrotation Xrotation Yrotation
								JOINT rhand
								{
									OFFSET 0 0 0
CHANNELS 3 Zrotation Xrotation Yrotation
									JOINT RFingers
									{
OFFSET 0 -0.801040 -0.000000
CHANNELS 3 Zrotation Xrotation Yrotation
										End Site
										{
OFFSET 0 -0.645820 -0.000000
										}
									}
								}
								JOINT RThumb
								{
OFFSET 0 0.000000 0.000000
CHANNELS 3 Zrotation Xrotation Yrotation
									End Site
									{
OFFSET 0 -0.655680 0.655680
									}
								}
							}
						}
					}
				}
			}
		}
	}
}
MOTION
Frames: 7
Frame Time: 0.008333333333333333
-0.733200 18.125000 -0.658400 3.432900 -10.162300 0.085900 0.000000 0.000000 0.000000 -19.727600 0.763600 1.596200 0.190800 2.812800 7.758000 -0.258700 15.631500 -19.325100 0.436000 -4.237000 -11.744400 0.000000 0.000000 0.000000 18.050300 7.936900 -6.663500 -1.414900 -7.523000 21.274300 -0.292400 -9.063200 -17.223100 -0.404700 4.083900 -11.312900 -0.622100 0.729700 5.645100 0.505600 0.926900 5.314500 0.835400 0.429100 2.291000 -4.995600 -4.910300 -3.829300 -0.555500 -6.201800 6.663400 0.442200 -3.224100 2.948200 -0.000000 0.000000 0.000000 22.394200 20.085500 -65.058100 67.775100 -58.048800 40.878800 27.761100 -55.180500 -42.381600 0.000000 0.000000 0.000000 -7.125000 0.000000 0.000000 -17.549000 75.281600 12.600400 -0.000000 0.000000 0.000000 -8.259200 28.972400 38.293900 -64.320600 -57.355400 -37.958400 -38.588600 -95.627500 -8.038900 0.000000 0.000000 0.000000 7.125000 0.000000 -0.000000 -8.374700 19.792100 -5.098500
-0.793979 18.127485 -0.708794 3.138992 -10.148865 0.427970 0.000000 0.000000 0.000000 -19.163412 0.475602 0.863630 0.218295 3.007456 8.299438 -0.249374 15.590621 -19.372169 0.452405 -4.314903 -11.964348 0.000000 0.000000 0.000000 18.567524 8.078383 -7.096380 -1.407220 -7.503350 21.215360 -0.267736 -9.181655 -17.043602 -0.414256 4.131344 -11.446421 -0.518301 0.479723 5.601171 0.564400 0.596844 5.350613 0.850168 0.265522 2.359683 -4.892223 -4.254054 -3.519668 -0.712362 -5.336146 6.798767 0.415924 -2.799161 2.905553 0.000000 0.000000 0.000000 22.587128 16.211240 -63.808655 73.560531 -58.953656 45.812991 28.420156 -55.332004 -40.510675 0.000000 0.000000 0.000000 -7.125000 0.000000 0.000000 -13.197309 73.798713 9.031102 0.000000 0.000000 0.000000 -8.221588 25.947088 31.474204 -68.709241 -58.215746 -41.672173 -43.219614 -100.024786 -13.045719 0.000000 0.000000 0.000000 7.125000 0.000000 0.000000 -10.626028 12.563797 -8.205926
-0.836569 18.128850 -0.760649 3.167750 -10.061084 0.472047 0.000000 0.000000 0.000000 -19.022026 0.324791 0.702138 0.217539 3.002741 8.286366 -0.288139 15.740816 -19.143618 0.470326 -4.398500 -12.200683 0.000000 0.000000 0.000000 18.679305 8.099462 -7.257047 -1.394461 -7.470742 21.117737 -0.268500 -9.139095 -17.006312 -0.384608 3.982401 -11.027084 -0.711604 0.286876 5.634576 0.410853 0.334987 5.507581 0.809905 0.129654 2.509007 -4.765927 -3.808180 -2.907239 -0.461250 -4.802792 6.565482 0.510908 -2.518637 2.703291 0.000000 0.000000 0.000000 23.243151 10.291507 -63.704235 80.706650 -59.670778 51.960682 31.189285 -55.129671 -38.600682 0.000000 0.000000 0.000000 -7.125000 0.000000 0.000000 -6.267766 72.917796 4.154596 0.000000 0.000000 0.000000 -10.922205 22.145818 27.370896 -74.877467 -59.117569 -46.942332 -46.560065 -104.049490 -16.667039 0.000000 0.000000 0.000000 7.125000 0.000000 0.000000 -11.943807 6.868557 -10.670338
-0.866129 18.128835 -0.826328 2.944777 -10.135715 0.438133 0.000000 0.000000 0.000000 -18.605944 0.197816 0.132133 0.259618 3.278049 9.053958 -0.251087 15.661669 -19.467392 0.467717 -4.386557 -12.166638 0.000000 0.000000 0.000000 19.058450 8.110770 -7.308157 -1.374186 -7.418384 20.961036 -0.256702 -9.069055 -16.779029 -0.337008 3.730708 -10.320392 -0.720465 0.155235 5.826213 0.290398 0.159115 5.685017 0.696724 0.042242 2.590738 -4.874242 -3.520767 -2.875745 -0.129328 -4.436386 6.552604 0.649989 -2.328948 2.697511 0.000000 0.000000 0.000000 23.610780 2.228299 -64.365323 86.858664 -59.962158 57.279925 35.305957 -53.016845 -38.251313 0.000000 0.000000 0.000000 -7.125000 0.000000 0.000000 1.063094 73.988456 -0.731656 0.000000 0.000000 0.000000 -16.564757 17.974660 26.548067 -81.326011 -59.713267 -52.495321 -50.234956 -108.021304 -21.318965 0.000000 0.000000 0.000000 7.125000 0.000000 0.000000 -12.957560 -0.712206 -13.465427
-0.893898 18.130061 -0.881156 2.925508 -10.549880 0.623670 0.000000 0.000000 0.000000 -18.440946 0.446686 -0.631338 0.292617 3.478423 9.613714 -0.240240 15.546971 -19.411824 0.453951 -4.322136 -11.984936 0.000000 0.000000 0.000000 19.137581 8.188262 -7.840693 -1.388838 -7.456335 21.074546 -0.271240 -8.654976 -16.517574 -0.327201 3.676606 -10.168555 -1.015291 0.144991 5.606902 -0.046796 0.142849 5.769832 0.515680 0.029175 2.801871 -4.728062 -3.213557 -2.494153 0.431812 -4.094081 6.073586 0.826270 -2.132151 2.468971 0.000000 0.000000 0.000000 23.519128 -6.940138 -64.793476 91.857250 -59.986762 61.608336 36.016198 -52.462538 -38.149725 0.000000 0.000000 0.000000 -7.125000 0.000000 0.000000 2.438510 74.128293 -1.677131 0.000000 0.000000 0.000000 -23.982154 12.864813 27.693093 -86.711338 -59.958672 -57.152356 -51.624070 -106.504657 -22.528718 0.000000 0.000000 0.000000 7.125000 0.000000 0.000000 -13.414944 -2.960700 -14.484504
-0.911524 18.120626 -0.950197 2.863137 -10.557525 -0.027583 0.000000 0.000000 0.000000 -18.283591 0.443258 -0.681081 0.355794 3.832017 10.604532 -0.236973 15.583340 -19.510485 0.540428 -4.708344 -13.078888 0.000000 0.000000 0.000000 19.349740 7.711413 -7.407365 -1.384951 -7.446229 21.044236 -0.293045 -8.310798 -16.437356 -0.284855 3.432455 -9.485160 -1.222027 0.052610 6.244880 -0.368887 0.009590 6.173172 0.303561 -0.041191 2.870495 -4.942264 -2.969528 -2.060549 1.288193 -3.833305 5.376143 1.155428 -1.976842 2.180960 0.000000 0.000000 0.000000 22.411938 -16.703480 -65.034532 95.927107 -59.866562 65.130643 35.561233 -53.926526 -34.772741 0.000000 0.000000 0.000000 -7.125000 0.000000 0.000000 4.020567 70.423112 -2.442353 0.000000 0.000000 0.000000 -32.553449 6.967892 29.098147 -92.623702 -59.973033 -62.271965 -50.122357 -103.754815 -22.514963 0.000000 0.000000 0.000000 7.125000 0.000000 0.000000 -12.579523 -2.210702 -13.377315
-0.935478 18.114001 -1.014224 2.794614 -10.819161 -0.112836 0.000000 0.000000 0.000000 -18.034735 0.675146 -1.690223 0.446986 4.288813 11.890801 -0.170841 15.183037 -19.663898 0.529765 -4.663938 -12.952518 0.000000 0.000000 0.000000 19.528120 7.775344 -7.721779 -1.416960 -7.528269 21.290097 -0.294970 -8.088766 -16.232616 -0.280070 3.403590 -9.404569 -1.501590 -0.059411 6.434038 -0.777323 -0.145695 6.386574 0.044453 -0.122718 2.991335 -5.193559 -2.634101 -1.636382 2.364682 -3.450677 4.649897 1.563644 -1.761206 1.888528 0.000000 0.000000 0.000000 20.305933 -25.453480 -64.914540 99.475862 -59.657673 68.196876 37.577476 -52.186911 -33.409284 0.000000 0.000000 0.000000 -7.125000 0.000000 0.000000 7.932837 69.601635 -4.683548 0.000000 0.000000 0.000000 -41.688485 0.286117 30.469422 -98.164625 -59.745996 -67.064692 -47.258573 -99.456957 -20.962778 0.000000 0.000000 0.000000 7.125000 0.000000 0.000000 -11.342817 1.034636 -11.362536
